<svg width="120" height="35" viewBox="0 0 120 35" fill="none" xmlns="http://www.w3.org/2000/svg">
<path d="M0 2C0 0.89543 0.895431 0 2 0H118C119.105 0 120 0.895431 120 2V33C120 34.1046 119.105 35 118 35H2C0.895429 35 0 34.1046 0 33V2Z" fill="#3C93F0"/>
<path d="M31.2074 16.918C31.6367 17.142 31.9727 17.45 32.2154 17.842C32.4581 18.234 32.5794 18.6867 32.5794 19.2C32.5794 20.0027 32.2947 20.67 31.7254 21.202C31.1561 21.734 30.4607 22 29.6394 22H25.4394V12.2H29.3314C30.1341 12.2 30.8107 12.4613 31.3614 12.984C31.9214 13.4973 32.2014 14.1413 32.2014 14.916C32.2014 15.7653 31.8701 16.4327 31.2074 16.918ZM29.3314 13.712H27.0494V16.288H29.3314C29.6861 16.288 29.9847 16.1667 30.2274 15.924C30.4701 15.672 30.5914 15.364 30.5914 15C30.5914 14.636 30.4701 14.3327 30.2274 14.09C29.9847 13.838 29.6861 13.712 29.3314 13.712ZM29.6394 20.488C30.0127 20.488 30.3254 20.3573 30.5774 20.096C30.8387 19.8253 30.9694 19.4987 30.9694 19.116C30.9694 18.7333 30.8387 18.4113 30.5774 18.15C30.3254 17.8793 30.0127 17.744 29.6394 17.744H27.0494V20.488H29.6394ZM43.2943 12.2H44.9043V22H43.2943V17.758H39.0943V22H37.4843V12.2H39.0943V16.218H43.2943V12.2ZM53.2472 22L52.5612 20.026H48.3892L47.7032 22H45.9532L49.5092 12.2H51.4412L54.9832 22H53.2472ZM48.9212 18.514H52.0292L50.4752 14.09L48.9212 18.514ZM60.5898 12.2H62.1998V22H60.5898V18.234C59.9085 18.542 59.1898 18.696 58.4338 18.696C57.4538 18.696 56.6558 18.4253 56.0398 17.884C55.4331 17.3333 55.1298 16.6053 55.1298 15.7V12.2H56.7398V15.532C56.7398 16.036 56.8938 16.4327 57.2018 16.722C57.5098 17.0113 57.9298 17.156 58.4618 17.156C59.2365 17.156 59.9458 16.9973 60.5898 16.68V12.2ZM70.5421 22L69.8561 20.026H65.6841L64.9981 22H63.2481L66.8041 12.2H68.7361L72.2781 22H70.5421ZM66.2161 18.514H69.3241L67.7701 14.09L66.2161 18.514ZM72.6023 22V20.516C73.2183 20.6 73.6757 20.4507 73.9743 20.068C74.2823 19.6853 74.4363 18.9527 74.4363 17.87V12.2H81.0023V22H79.3923V13.74H76.0463V17.842C76.0463 18.7007 75.953 19.424 75.7663 20.012C75.589 20.6 75.3323 21.0433 74.9963 21.342C74.6603 21.6313 74.2963 21.8273 73.9043 21.93C73.5217 22.0233 73.0877 22.0467 72.6023 22ZM91.147 20.712C90.167 21.692 88.9676 22.182 87.549 22.182C86.1303 22.182 84.9263 21.692 83.937 20.712C82.957 19.7227 82.467 18.5187 82.467 17.1C82.467 15.6813 82.957 14.482 83.937 13.502C84.9263 12.5127 86.1303 12.018 87.549 12.018C88.9676 12.018 90.167 12.5127 91.147 13.502C92.1363 14.482 92.631 15.6813 92.631 17.1C92.631 18.5187 92.1363 19.7227 91.147 20.712ZM85.071 19.62C85.743 20.2827 86.569 20.614 87.549 20.614C88.529 20.614 89.3503 20.2827 90.013 19.62C90.685 18.948 91.021 18.108 91.021 17.1C91.021 16.092 90.685 15.2567 90.013 14.594C89.3503 13.922 88.529 13.586 87.549 13.586C86.569 13.586 85.743 13.922 85.071 14.594C84.4083 15.2567 84.077 16.092 84.077 17.1C84.077 18.108 84.4083 18.948 85.071 19.62Z" fill="white"/>
<path d="M105 13.7083L102 17.5L104.5 17.5L104.5 20.75L105.5 20.75L105.5 17.5L108 17.5L105 13.7083Z" fill="white"/>
</svg>
