<svg width="18" height="18" viewBox="0 0 18 18" fill="none" xmlns="http://www.w3.org/2000/svg">
<g clip-path="url(#clip0_1265_6995)">
<path d="M6.55805 9.93062C6.55805 9.70513 6.37516 9.52246 6.14949 9.52246H4.72377C4.49836 9.52246 4.31543 9.70513 4.31543 9.93062V11.3562C4.31543 11.5819 4.49836 11.7647 4.72377 11.7647H6.14949C6.37516 11.7647 6.55805 11.5819 6.55805 11.3562V9.93062Z" fill="#09D743"/>
<path d="M10.1213 9.93062C10.1213 9.70513 9.93839 9.52246 9.71316 9.52246H8.28725C8.06184 9.52246 7.87891 9.70513 7.87891 9.93062V11.3562C7.87891 11.5819 8.06184 11.7647 8.28725 11.7647H9.71316C9.93839 11.7647 10.1213 11.5819 10.1213 11.3562V9.93062Z" fill="#09D743"/>
<path d="M13.6845 9.93062C13.6845 9.70513 13.5016 9.52246 13.2762 9.52246H11.8505C11.6248 9.52246 11.4419 9.70513 11.4419 9.93062V11.3562C11.4419 11.5819 11.6248 11.7647 11.8505 11.7647H13.2762C13.5016 11.7647 13.6845 11.5819 13.6845 11.3562V9.93062Z" fill="#09D743"/>
<path d="M6.55805 13.4943C6.55805 13.2685 6.37516 13.0859 6.14949 13.0859H4.72377C4.49836 13.0859 4.31543 13.2685 4.31543 13.4943V14.9196C4.31543 15.1452 4.49836 15.3279 4.72377 15.3279H6.14949C6.37516 15.3279 6.55805 15.1452 6.55805 14.9196V13.4943Z" fill="#09D743"/>
<path d="M10.1213 13.4943C10.1213 13.2685 9.93839 13.0859 9.71316 13.0859H8.28725C8.06184 13.0859 7.87891 13.2685 7.87891 13.4943V14.9196C7.87891 15.1452 8.06184 15.3279 8.28725 15.3279H9.71316C9.93839 15.3279 10.1213 15.1452 10.1213 14.9196V13.4943Z" fill="#09D743"/>
<path d="M13.6845 13.4943C13.6845 13.2685 13.5016 13.0859 13.2764 13.0859H11.8505C11.6248 13.0859 11.4419 13.2685 11.4419 13.4943V14.9196C11.4419 15.1452 11.6248 15.3279 11.8505 15.3279H13.2764C13.5016 15.3279 13.6845 15.1452 13.6845 14.9196V13.4943Z" fill="#09D743"/>
<path d="M16.2338 2.00391V4.18131C16.2338 5.16547 15.4354 5.95855 14.4514 5.95855H13.327C12.3429 5.95855 11.5339 5.16547 11.5339 4.18131V1.99609H6.46597V4.18131C6.46597 5.16547 5.65704 5.95855 4.6731 5.95855H3.54849C2.56451 5.95855 1.76616 5.16547 1.76616 4.18131V2.00391C0.906148 2.02983 0.199463 2.74146 0.199463 3.61614V16.3767C0.199463 17.2678 0.921746 17.9997 1.81287 17.9997H16.187C17.0768 17.9997 17.8004 17.2663 17.8004 16.3767V3.61614C17.8004 2.74146 17.0938 2.02983 16.2338 2.00391ZM15.7115 15.5821C15.7115 15.9672 15.3993 16.2796 15.014 16.2796H2.95515C2.56989 16.2796 2.25765 15.9672 2.25765 15.5821V8.99079C2.25765 8.60553 2.56986 8.2931 2.95515 8.2931H15.014C15.3992 8.2931 15.7115 8.60553 15.7115 8.99079L15.7115 15.5821Z" fill="#09D743"/>
<path d="M3.54489 4.79156H4.65707C4.99465 4.79156 5.26837 4.51825 5.26837 4.18067V0.611109C5.26837 0.273493 4.99465 0 4.65707 0H3.54489C3.20727 0 2.93359 0.273493 2.93359 0.611109V4.18067C2.93359 4.51825 3.20727 4.79156 3.54489 4.79156Z" fill="#09D743"/>
<path d="M13.3127 4.79156H14.4249C14.7622 4.79156 15.0359 4.51825 15.0359 4.18067V0.611109C15.036 0.273493 14.7623 0 14.4249 0H13.3127C12.9751 0 12.7014 0.273493 12.7014 0.611109V4.18067C12.7014 4.51825 12.9751 4.79156 13.3127 4.79156Z" fill="#09D743"/>
</g>
<defs>
<clipPath id="clip0_1265_6995">
<rect width="18" height="18" fill="white"/>
</clipPath>
</defs>
</svg>
