<svg width="235" height="50" viewBox="0 0 235 50" fill="none" xmlns="http://www.w3.org/2000/svg">
<rect width="235" height="50" rx="3" fill="#FED036"/>
<path d="M67.668 29.144C66.452 29.144 65.436 28.76 64.62 27.992C63.812 27.216 63.408 26.22 63.408 25.004C63.408 23.788 63.812 22.796 64.62 22.028C65.436 21.252 66.452 20.864 67.668 20.864C69.164 20.864 70.28 21.516 71.016 22.82L69.552 23.54C69.376 23.204 69.116 22.928 68.772 22.712C68.436 22.488 68.068 22.376 67.668 22.376C66.94 22.376 66.34 22.624 65.868 23.12C65.396 23.616 65.16 24.244 65.16 25.004C65.16 25.764 65.396 26.392 65.868 26.888C66.34 27.384 66.94 27.632 67.668 27.632C68.068 27.632 68.436 27.524 68.772 27.308C69.116 27.092 69.376 26.812 69.552 26.468L71.016 27.176C70.256 28.488 69.14 29.144 67.668 29.144ZM78.8823 29H76.7823L74.3583 25.796L73.7343 26.54V29H72.0303V20.996H73.7343V24.572L76.5663 20.996H78.6663L75.4863 24.752L78.8823 29ZM87.1232 29H85.1792L84.6872 27.644H81.2552L80.7512 29H78.8072L81.9032 20.996H84.0392L87.1232 29ZM84.2192 26.144L82.9712 22.7L81.7232 26.144H84.2192ZM88.6009 20.996V23.24C88.6009 24.208 89.0889 24.692 90.0649 24.692C90.6409 24.692 91.1489 24.604 91.5889 24.428V20.996H93.2929V29H91.5889V25.928C91.0049 26.104 90.4289 26.192 89.8609 26.192C88.8689 26.192 88.1249 25.932 87.6289 25.412C87.1329 24.884 86.8849 24.16 86.8849 23.24V20.996H88.6009ZM102.346 29H100.402L99.9098 27.644H96.4778L95.9738 29H94.0298L97.1258 20.996H99.2618L102.346 29ZM99.4418 26.144L98.1938 22.7L96.9458 26.144H99.4418ZM105.876 29H104.16V22.496H101.82V20.996H108.204V22.496H105.876V29ZM109.296 20.996H111V23.84H113.04C113.872 23.84 114.528 24.088 115.008 24.584C115.488 25.08 115.728 25.692 115.728 26.42C115.728 27.156 115.488 27.772 115.008 28.268C114.536 28.756 113.88 29 113.04 29H109.296V20.996ZM112.812 25.34H111V27.5H112.812C113.156 27.5 113.436 27.404 113.652 27.212C113.876 27.012 113.988 26.748 113.988 26.42C113.988 26.092 113.876 25.832 113.652 25.64C113.436 25.44 113.156 25.34 112.812 25.34ZM127.055 29H125.339V22.496H121.559V29H119.854V20.996H127.055V29ZM130.336 29H128.632V20.996H132.376C133.216 20.996 133.872 21.244 134.344 21.74C134.824 22.228 135.064 22.84 135.064 23.576C135.064 24.304 134.824 24.916 134.344 25.412C133.864 25.908 133.208 26.156 132.376 26.156H130.336V29ZM132.148 24.656C132.492 24.656 132.772 24.56 132.988 24.368C133.212 24.168 133.324 23.904 133.324 23.576C133.324 23.248 133.212 22.988 132.988 22.796C132.772 22.596 132.492 22.496 132.148 22.496H130.336V24.656H132.148ZM142.694 29H140.75L140.258 27.644H136.826L136.322 29H134.377L137.474 20.996H139.61L142.694 29ZM139.79 26.144L138.542 22.7L137.294 26.144H139.79ZM145.077 29H143.433V20.996H145.137V26.168L148.845 20.996H150.597V29H148.893V23.636L145.077 29ZM149.121 19.568C148.601 20.272 147.901 20.624 147.021 20.624C146.149 20.624 145.445 20.272 144.909 19.568L145.581 19.004C145.933 19.5 146.413 19.748 147.021 19.748C147.613 19.748 148.089 19.5 148.449 19.004L149.121 19.568ZM156.051 29.144C154.835 29.144 153.819 28.76 153.003 27.992C152.195 27.216 151.791 26.22 151.791 25.004C151.791 23.788 152.195 22.796 153.003 22.028C153.819 21.252 154.835 20.864 156.051 20.864C157.547 20.864 158.663 21.516 159.399 22.82L157.935 23.54C157.759 23.204 157.499 22.928 157.155 22.712C156.819 22.488 156.451 22.376 156.051 22.376C155.323 22.376 154.723 22.624 154.251 23.12C153.779 23.616 153.543 24.244 153.543 25.004C153.543 25.764 153.779 26.392 154.251 26.888C154.723 27.384 155.323 27.632 156.051 27.632C156.451 27.632 156.819 27.524 157.155 27.308C157.499 27.092 157.759 26.812 157.935 26.468L159.399 27.176C158.639 28.488 157.523 29.144 156.051 29.144ZM159.851 29.144V27.632C160.283 27.632 160.615 27.46 160.847 27.116C161.079 26.764 161.255 26.088 161.375 25.088L161.843 20.996H167.531V29H165.815V22.496H163.379L163.067 25.208C162.971 26.016 162.827 26.688 162.635 27.224C162.451 27.752 162.211 28.152 161.915 28.424C161.627 28.696 161.323 28.884 161.003 28.988C160.683 29.092 160.299 29.144 159.851 29.144ZM170.752 29H169.108V20.996H170.812V26.168L174.52 20.996H176.272V29H174.568V23.636L170.752 29ZM181.727 29.144C180.511 29.144 179.495 28.76 178.679 27.992C177.871 27.216 177.467 26.22 177.467 25.004C177.467 23.788 177.871 22.796 178.679 22.028C179.495 21.252 180.511 20.864 181.727 20.864C183.223 20.864 184.339 21.516 185.075 22.82L183.611 23.54C183.435 23.204 183.175 22.928 182.831 22.712C182.495 22.488 182.127 22.376 181.727 22.376C180.999 22.376 180.399 22.624 179.927 23.12C179.455 23.616 179.219 24.244 179.219 25.004C179.219 25.764 179.455 26.392 179.927 26.888C180.399 27.384 180.999 27.632 181.727 27.632C182.127 27.632 182.495 27.524 182.831 27.308C183.175 27.092 183.435 26.812 183.611 26.468L185.075 27.176C184.315 28.488 183.199 29.144 181.727 29.144ZM189.653 29H187.937V22.496H185.597V20.996H191.981V22.496H189.653V29Z" fill="#3E3E3E"/>
<g clip-path="url(#clip0_1277_12212)">
<path d="M47.9994 26.3334C47.8798 26.3334 47.7655 26.2844 47.6833 26.1981L44.6208 22.9897C44.3553 22.7121 44.5525 22.2501 44.9369 22.2501H46.5411V18.8959C46.5411 18.494 46.8683 18.1667 47.2703 18.1667H48.7286C49.1305 18.1667 49.4578 18.494 49.4578 18.8959V22.2501H51.0619C51.4463 22.2501 51.6435 22.7121 51.3781 22.9897L48.3156 26.1981C48.2333 26.2844 48.119 26.3334 47.9994 26.3334Z" fill="#3E3E3E"/>
<path d="M53.9792 29.8333H42.0208C41.4579 29.8333 41 29.3754 41 28.8125V28.5208C41 27.9579 41.4579 27.5 42.0208 27.5H53.9792C54.5421 27.5 55 27.9579 55 28.5208V28.8125C55 29.3754 54.5421 29.8333 53.9792 29.8333Z" fill="#3E3E3E"/>
</g>
<defs>
<clipPath id="clip0_1277_12212">
<rect width="14" height="14" fill="white" transform="translate(41 17)"/>
</clipPath>
</defs>
</svg>
