<svg width="18" height="19" viewBox="0 0 18 19" fill="none" xmlns="http://www.w3.org/2000/svg">
<path d="M5.22971 10.7788C5.73556 10.7788 6.22451 10.7462 6.68719 10.6853V5.61396C6.22455 5.55318 5.73556 5.52051 5.22971 5.52051C2.34143 5.52051 0 6.58244 0 7.89245V8.40685C0 9.71682 2.34143 10.7788 5.22971 10.7788Z" fill="#09D743"/>
<path d="M5.22971 13.4269C5.73556 13.4269 6.22451 13.3942 6.68719 13.3334V11.8469C6.22442 11.9077 5.73569 11.9408 5.22971 11.9408C2.70855 11.9408 0.604271 11.1316 0.10999 10.0547C0.0380079 10.2116 0 10.374 0 10.5405V11.0549C0 12.3649 2.34143 13.4269 5.22971 13.4269Z" fill="#09D743"/>
<path d="M6.68719 14.6099V14.4944C6.22442 14.5552 5.73569 14.5883 5.22971 14.5883C2.70855 14.5883 0.604271 13.7791 0.10999 12.7021C0.0380079 12.859 0 13.0214 0 13.1879V13.7023C0 15.0124 2.34143 16.0743 5.22971 16.0743C5.80732 16.0743 6.36287 16.0317 6.88238 15.9533C6.75361 15.6899 6.68719 15.4121 6.68719 15.1243V14.6099Z" fill="#09D743"/>
<path d="M12.77 1.50293C9.88171 1.50293 7.54028 2.56486 7.54028 3.87488V4.38929C7.54028 5.6993 9.88171 6.76124 12.77 6.76124C15.6582 6.76124 17.9997 5.6993 17.9997 4.38929V3.87488C17.9997 2.56486 15.6582 1.50293 12.77 1.50293Z" fill="#09D743"/>
<path d="M12.77 7.92325C10.2488 7.92325 8.14456 7.1141 7.65027 6.03711C7.57829 6.19394 7.54028 6.35637 7.54028 6.52292V7.03732C7.54028 8.34734 9.88171 9.40927 12.77 9.40927C15.6582 9.40927 17.9997 8.34734 17.9997 7.03732V6.52292C17.9997 6.35637 17.9617 6.19394 17.8897 6.03711C17.3954 7.1141 15.2912 7.92325 12.77 7.92325Z" fill="#09D743"/>
<path d="M12.77 10.5717C10.2488 10.5717 8.14456 9.7625 7.65027 8.68555C7.57829 8.84237 7.54028 9.0048 7.54028 9.17136V9.68577C7.54028 10.9958 9.88171 12.0578 12.77 12.0578C15.6582 12.0578 17.9997 10.9958 17.9997 9.68577V9.17136C17.9997 9.0048 17.9617 8.84237 17.8897 8.68555C17.3954 9.76255 15.2912 10.5717 12.77 10.5717Z" fill="#09D743"/>
<path d="M12.77 13.3627C10.2488 13.3627 8.14456 12.5535 7.65027 11.4766C7.57829 11.6334 7.54028 11.7958 7.54028 11.9623V12.4768C7.54028 13.7868 9.88171 14.8487 12.77 14.8487C15.6582 14.8487 17.9997 13.7868 17.9997 12.4768V11.9623C17.9997 11.7958 17.9617 11.6333 17.8897 11.4766C17.3954 12.5535 15.2912 13.3627 12.77 13.3627Z" fill="#09D743"/>
<path d="M12.77 16.0111C10.2488 16.0111 8.14456 15.202 7.65027 14.125C7.57829 14.2819 7.54028 14.4444 7.54028 14.6108V15.1252C7.54028 16.4352 9.88171 17.4972 12.77 17.4972C15.6582 17.4972 17.9997 16.4352 17.9997 15.1252V14.6108C17.9997 14.4443 17.9617 14.2818 17.8897 14.125C17.3954 15.2019 15.2912 16.0111 12.77 16.0111Z" fill="#09D743"/>
</svg>
