<svg width="36" height="36" viewBox="0 0 36 36" fill="none" xmlns="http://www.w3.org/2000/svg">
<g id="icon">
<g id="icon_2">
<g id="phone-icon">
<path id="Vector" d="M27.3691 23.8151C26.193 22.654 24.7247 22.654 23.5561 23.8151C22.6646 24.6991 21.7731 25.583 20.8967 26.482C20.657 26.7292 20.4547 26.7816 20.1625 26.6168C19.5857 26.3022 18.9714 26.0475 18.4171 25.7029C15.8326 24.0773 13.6676 21.9872 11.7499 19.635C10.7985 18.4664 9.95198 17.2153 9.36017 15.807C9.24031 15.5223 9.26278 15.335 9.49501 15.1028C10.3865 14.2413 11.2555 13.3573 12.1319 12.4734C13.353 11.2448 13.353 9.80649 12.1244 8.57043C11.4278 7.86626 10.7311 7.17706 10.0344 6.47289C9.31522 5.75373 8.60355 5.02708 7.8769 4.31541C6.70078 3.16925 5.2325 3.16925 4.06387 4.3229C3.16492 5.20687 2.30343 6.11331 1.38949 6.98229C0.542985 7.78385 0.115984 8.76521 0.0260892 9.91137C-0.116244 11.7767 0.340721 13.5371 0.984967 15.2526C2.30343 18.8035 4.31108 21.9573 6.74573 24.8489C10.0344 28.7593 13.9598 31.8532 18.5519 34.0856C20.6195 35.0894 22.762 35.861 25.0918 35.9884C26.6949 36.0783 28.0883 35.6737 29.2045 34.4227C29.9686 33.5687 30.8301 32.7896 31.6391 31.9731C32.8377 30.7595 32.8452 29.2912 31.6541 28.0926C30.2308 26.6618 28.7999 25.2384 27.3691 23.8151Z" fill="#3C93F0"/>
<path id="Vector_2" d="M25.9398 17.844L28.7041 17.3721C28.2696 14.8326 27.071 12.5327 25.2506 10.7049C23.3254 8.77964 20.8907 7.56606 18.2089 7.1915L17.8193 9.97075C19.8944 10.2629 21.7822 11.1993 23.273 12.6901C24.6813 14.0984 25.6027 15.8813 25.9398 17.844Z" fill="#3C93F0"/>
<path id="Vector_3" d="M30.2634 5.82818C27.0721 2.63692 23.0343 0.621773 18.577 0L18.1875 2.77925C22.038 3.31862 25.5289 5.06408 28.2857 7.81336C30.9002 10.4278 32.6157 13.7314 33.2374 17.3647L36.0017 16.8927C35.275 12.6827 33.2899 8.86213 30.2634 5.82818Z" fill="#3C93F0"/>
</g>
</g>
</g>
</svg>
