<svg width="36" height="28" viewBox="0 0 36 28" fill="none" xmlns="http://www.w3.org/2000/svg">
<path d="M32.5293 0.5H3.47073C1.55489 0.5 0 2.09827 0 4.06933V23.9307C0 25.9017 1.55489 27.5 3.47073 27.5H32.5293C34.4459 27.5 36 25.9017 36 23.9307V4.06933C36 2.09827 34.4459 0.5 32.5293 0.5ZM3.45994 18.5664C3.45994 18.5243 3.46919 18.4839 3.47073 18.445C3.52627 16.7063 4.74025 15.2873 6.64916 14.5164C5.98355 13.7026 5.58248 12.654 5.58248 11.5102C5.58248 10.207 6.10387 9.02832 6.94147 8.17882C7.13737 7.98052 7.34947 7.79888 7.577 7.63866C8.3074 7.12626 9.18819 6.82803 10.1361 6.82803C11.084 6.82803 11.964 7.12785 12.6936 7.63866C13.8976 8.48182 14.6889 9.90241 14.6889 11.5102C14.6889 12.6532 14.2871 13.7018 13.6222 14.5156C15.454 15.2548 16.6534 16.5882 16.7953 18.234C16.8099 18.3435 16.8146 18.4553 16.8146 18.5672C16.8146 19.2667 16.5431 19.8973 16.1073 20.3637C15.6484 20.8531 15.0067 21.1617 14.2925 21.1617C14.2909 21.1617 14.2894 21.1617 14.2863 21.1617H5.98046C4.62302 21.1617 3.52472 20.056 3.46919 18.6766C3.46919 18.6385 3.45994 18.6044 3.45994 18.5664ZM32.5293 19.661C32.4753 20.4859 31.8128 21.1395 30.9975 21.1395H21.7422C21.18 21.1395 20.6925 20.8254 20.421 20.3613C20.2837 20.1242 20.1997 19.8489 20.1997 19.5531C20.1997 18.6774 20.8907 17.9667 21.7422 17.9667H29.0585H30.9975C31.8151 17.9667 32.4753 18.6203 32.5293 19.4444C32.5316 19.4817 32.5401 19.5158 32.5401 19.5531C32.5401 19.5904 32.5316 19.6245 32.5293 19.661ZM32.5293 14.1079C32.4753 14.932 31.8128 15.5856 30.9975 15.5856H29.0585H21.7422C20.8907 15.5856 20.1997 14.8749 20.1997 13.9992C20.1997 13.1235 20.8907 12.4128 21.7422 12.4128H29.0585H30.9975C31.8151 12.4128 32.4753 13.0664 32.5293 13.8913C32.5316 13.9278 32.5401 13.9619 32.5401 13.9984C32.5393 14.0365 32.5316 14.0706 32.5293 14.1079ZM32.5293 8.55479C32.4753 9.3797 31.8128 10.0333 30.9975 10.0333H29.0585H21.7422C20.8907 10.0333 20.1997 9.32259 20.1997 8.44692C20.1997 8.15026 20.2837 7.87582 20.421 7.63866C20.6925 7.17385 21.1784 6.86055 21.7422 6.86055H30.9975C31.8151 6.86055 32.4753 7.51413 32.5293 8.33904C32.5316 8.37553 32.5401 8.40964 32.5401 8.44692C32.5401 8.48419 32.5316 8.5183 32.5293 8.55479Z" fill="#3C93F0"/>
</svg>
