<svg width="36" height="36" viewBox="0 0 36 36" fill="none" xmlns="http://www.w3.org/2000/svg">
<g clip-path="url(#clip0_1233_8782)">
<path d="M35.6837 7.1524L24.7656 18.0001L35.6837 28.8479C35.881 28.4354 36.0008 27.9793 36.0008 27.4923V8.50796C36.0008 8.0209 35.881 7.56493 35.6837 7.1524Z" fill="#3C93F0"/>
<path d="M32.836 5.34375H3.16415C2.67709 5.34375 2.22112 5.46349 1.80859 5.66086L15.763 19.545C16.9969 20.7789 19.0033 20.7789 20.2371 19.545L34.1916 5.66086C33.7791 5.46349 33.3231 5.34375 32.836 5.34375Z" fill="#3C93F0"/>
<path d="M0.317109 7.1524C0.119742 7.56493 0 8.0209 0 8.50796V27.4923C0 27.9794 0.119742 28.4354 0.317109 28.8479L11.2352 18.0001L0.317109 7.1524Z" fill="#3C93F0"/>
<path d="M23.2735 19.4916L21.7285 21.0366C19.6727 23.0924 16.3274 23.0924 14.2716 21.0366L12.7266 19.4916L1.80859 30.3393C2.22112 30.5367 2.67709 30.6564 3.16415 30.6564H32.836C33.3231 30.6564 33.7791 30.5367 34.1916 30.3393L23.2735 19.4916Z" fill="#3C93F0"/>
</g>
<defs>
<clipPath id="clip0_1233_8782">
<rect width="36" height="36" fill="white"/>
</clipPath>
</defs>
</svg>
