<svg width="36" height="36" viewBox="0 0 36 36" fill="none" xmlns="http://www.w3.org/2000/svg">
<path d="M19.5447 2.55699L3.05995 0.0332498C2.29497 -0.0876478 1.51498 0.123923 0.929986 0.622626C0.344995 1.13644 0 1.87694 0 2.64766V34.4891C0 35.3202 0.67499 36.0003 1.49998 36.0003H6.3749V28.0664C6.3749 26.6005 7.54489 25.4218 8.99986 25.4218H12.7498C14.2048 25.4218 15.3748 26.6005 15.3748 28.0664V36.0003H21.7497V5.1714C21.7497 3.87175 20.8197 2.76856 19.5447 2.55699ZM8.24988 22.0215H5.99991C5.37892 22.0215 4.87493 21.5137 4.87493 20.8881C4.87493 20.2624 5.37892 19.7547 5.99991 19.7547H8.24988C8.87087 19.7547 9.37486 20.2624 9.37486 20.8881C9.37486 21.5137 8.87087 22.0215 8.24988 22.0215ZM8.24988 17.4878H5.99991C5.37892 17.4878 4.87493 16.9801 4.87493 16.3544C4.87493 15.7288 5.37892 15.221 5.99991 15.221H8.24988C8.87087 15.221 9.37486 15.7288 9.37486 16.3544C9.37486 16.9801 8.87087 17.4878 8.24988 17.4878ZM8.24988 12.9542H5.99991C5.37892 12.9542 4.87493 12.4464 4.87493 11.8208C4.87493 11.1951 5.37892 10.6874 5.99991 10.6874H8.24988C8.87087 10.6874 9.37486 11.1951 9.37486 11.8208C9.37486 12.4464 8.87087 12.9542 8.24988 12.9542ZM8.24988 8.42052H5.99991C5.37892 8.42052 4.87493 7.91275 4.87493 7.28711C4.87493 6.66146 5.37892 6.15369 5.99991 6.15369H8.24988C8.87087 6.15369 9.37486 6.66146 9.37486 7.28711C9.37486 7.91275 8.87087 8.42052 8.24988 8.42052ZM15.7498 22.0215H13.4998C12.8788 22.0215 12.3748 21.5137 12.3748 20.8881C12.3748 20.2624 12.8788 19.7547 13.4998 19.7547H15.7498C16.3708 19.7547 16.8747 20.2624 16.8747 20.8881C16.8747 21.5137 16.3708 22.0215 15.7498 22.0215ZM15.7498 17.4878H13.4998C12.8788 17.4878 12.3748 16.9801 12.3748 16.3544C12.3748 15.7288 12.8788 15.221 13.4998 15.221H15.7498C16.3708 15.221 16.8747 15.7288 16.8747 16.3544C16.8747 16.9801 16.3708 17.4878 15.7498 17.4878ZM15.7498 12.9542H13.4998C12.8788 12.9542 12.3748 12.4464 12.3748 11.8208C12.3748 11.1951 12.8788 10.6874 13.4998 10.6874H15.7498C16.3708 10.6874 16.8747 11.1951 16.8747 11.8208C16.8747 12.4464 16.3708 12.9542 15.7498 12.9542ZM15.7498 8.42052H13.4998C12.8788 8.42052 12.3748 7.91275 12.3748 7.28711C12.3748 6.66146 12.8788 6.15369 13.4998 6.15369H15.7498C16.3708 6.15369 16.8747 6.66146 16.8747 7.28711C16.8747 7.91275 16.3708 8.42052 15.7498 8.42052Z" fill="#3C93F0"/>
<path d="M33.9298 16.1155L23.25 13.8623V36.0002H33.3748C34.8223 36.0002 35.9998 34.8139 35.9998 33.3555V18.6997C35.9998 17.4515 35.1553 16.3891 33.9298 16.1155ZM30.3749 31.4665H28.1249C27.5039 31.4665 26.9999 30.9587 26.9999 30.3331C26.9999 29.7075 27.5039 29.1997 28.1249 29.1997H30.3749C30.9959 29.1997 31.4999 29.7075 31.4999 30.3331C31.4999 30.9587 30.9959 31.4665 30.3749 31.4665ZM30.3749 26.9329H28.1249C27.5039 26.9329 26.9999 26.4251 26.9999 25.7994C26.9999 25.1738 27.5039 24.666 28.1249 24.666H30.3749C30.9959 24.666 31.4999 25.1738 31.4999 25.7994C31.4999 26.4251 30.9959 26.9329 30.3749 26.9329ZM30.3749 22.3992H28.1249C27.5039 22.3992 26.9999 21.8914 26.9999 21.2658C26.9999 20.6401 27.5039 20.1324 28.1249 20.1324H30.3749C30.9959 20.1324 31.4999 20.6401 31.4999 21.2658C31.4999 21.8914 30.9959 22.3992 30.3749 22.3992Z" fill="#3C93F0"/>
</svg>
