<svg width="80" height="80" viewBox="0 0 80 80" fill="none" xmlns="http://www.w3.org/2000/svg">
<ellipse cx="40.6451" cy="39.3548" rx="29.0323" ry="29.0323" fill="#09D743"/>
<ellipse cx="40.6451" cy="39.3548" rx="29.0323" ry="29.0323" fill="#09D743"/>
<circle cx="40" cy="40" r="39.5" stroke="#09D743"/>
<circle cx="40" cy="40" r="39.5" stroke="#09D743"/>
<path d="M50.3225 38.7084H52.9032C52.9032 32.089 47.9057 27.0968 41.2773 27.0968V29.6774C46.5186 29.6774 50.3225 33.4748 50.3225 38.7084Z" fill="white"/>
<path d="M41.2903 34.8387C44.0039 34.8387 45.1613 35.9962 45.1613 38.7097H47.7419C47.7419 34.5484 45.4516 32.2581 41.2903 32.2581V34.8387ZM45.7058 41.862C45.191 41.3936 44.3961 41.4181 43.911 41.9174L40.8232 45.0929C40.08 44.951 38.5858 44.4852 37.0477 42.951C35.5097 41.4116 35.0439 39.9136 34.9058 39.1755L38.0787 36.0865C38.5793 35.6013 38.6026 34.8078 38.1342 34.2916L33.3664 29.0491C32.8981 28.5316 32.1019 28.4826 31.5716 28.9368L28.7716 31.3381C28.5484 31.5626 28.4155 31.8594 28.3974 32.1755C28.3781 32.4981 28.009 40.1394 33.9342 46.0671C39.1032 51.2349 45.5781 51.6129 47.3613 51.6129C47.6219 51.6129 47.7819 51.6052 47.8245 51.6026C48.1406 51.5845 48.4374 51.4516 48.6606 51.2271L51.0606 48.4258C51.5161 47.8955 51.4645 47.1007 50.9497 46.631L45.7058 41.862Z" fill="white"/>
</svg>
